<mxfile host="app.diagrams.net" modified="2023-11-16T20:06:16.071Z" agent="Mozilla/5.0 (Windows NT 10.0; Win64; x64; rv:109.0) Gecko/20100101 Firefox/118.0" version="22.1.2" etag="2N0nonv8TVrg1N2mDC_x" type="github">
  <diagram name="Page-1" id="mDJYMSOrBiyPklnZzfSX">
    <mxGraphModel>
      <root>
        <mxCell id="0" />
        <mxCell id="1" parent="0" />
      </root>
    </mxGraphModel>
  </diagram>
</mxfile>
